<mxfile host="app.diagrams.net" agent="Mozilla/5.0 (Windows NT 10.0; Win64; x64) AppleWebKit/537.36 (KHTML, like Gecko) Chrome/131.0.0.0 Safari/537.36 Edg/131.0.0.0" version="25.0.3">
  <diagram id="C5RBs43oDa-KdzZeNtuy" name="Page-1">
    <mxGraphModel dx="996" dy="567" grid="1" gridSize="10" guides="1" tooltips="1" connect="1" arrows="1" fold="1" page="1" pageScale="1" pageWidth="827" pageHeight="1169" math="0" shadow="0">
      <root>
        <mxCell id="WIyWlLk6GJQsqaUBKTNV-0" />
        <mxCell id="WIyWlLk6GJQsqaUBKTNV-1" parent="WIyWlLk6GJQsqaUBKTNV-0" />
        <mxCell id="1kDxsHnjOwTE97DRzntE-3" value="" style="edgeStyle=orthogonalEdgeStyle;rounded=0;orthogonalLoop=1;jettySize=auto;html=1;" edge="1" parent="WIyWlLk6GJQsqaUBKTNV-1" source="1kDxsHnjOwTE97DRzntE-0" target="1kDxsHnjOwTE97DRzntE-2">
          <mxGeometry relative="1" as="geometry" />
        </mxCell>
        <mxCell id="1kDxsHnjOwTE97DRzntE-0" value="Start" style="ellipse;whiteSpace=wrap;html=1;" vertex="1" parent="WIyWlLk6GJQsqaUBKTNV-1">
          <mxGeometry x="354" y="30" width="120" height="80" as="geometry" />
        </mxCell>
        <mxCell id="1kDxsHnjOwTE97DRzntE-1" value="Stop" style="ellipse;whiteSpace=wrap;html=1;" vertex="1" parent="WIyWlLk6GJQsqaUBKTNV-1">
          <mxGeometry x="354" y="505" width="120" height="80" as="geometry" />
        </mxCell>
        <mxCell id="1kDxsHnjOwTE97DRzntE-5" value="" style="edgeStyle=orthogonalEdgeStyle;rounded=0;orthogonalLoop=1;jettySize=auto;html=1;" edge="1" parent="WIyWlLk6GJQsqaUBKTNV-1" source="1kDxsHnjOwTE97DRzntE-2" target="1kDxsHnjOwTE97DRzntE-4">
          <mxGeometry relative="1" as="geometry" />
        </mxCell>
        <mxCell id="1kDxsHnjOwTE97DRzntE-2" value="Nháº­p pt ax + b = 0" style="shape=parallelogram;perimeter=parallelogramPerimeter;whiteSpace=wrap;html=1;fixedSize=1;" vertex="1" parent="WIyWlLk6GJQsqaUBKTNV-1">
          <mxGeometry x="343.5" y="160" width="141" height="60" as="geometry" />
        </mxCell>
        <mxCell id="1kDxsHnjOwTE97DRzntE-7" value="" style="edgeStyle=orthogonalEdgeStyle;rounded=0;orthogonalLoop=1;jettySize=auto;html=1;" edge="1" parent="WIyWlLk6GJQsqaUBKTNV-1" source="1kDxsHnjOwTE97DRzntE-4" target="1kDxsHnjOwTE97DRzntE-6">
          <mxGeometry relative="1" as="geometry" />
        </mxCell>
        <mxCell id="1kDxsHnjOwTE97DRzntE-4" value="x = - b / a" style="rounded=1;whiteSpace=wrap;html=1;" vertex="1" parent="WIyWlLk6GJQsqaUBKTNV-1">
          <mxGeometry x="354" y="280" width="120" height="60" as="geometry" />
        </mxCell>
        <mxCell id="1kDxsHnjOwTE97DRzntE-8" value="" style="edgeStyle=orthogonalEdgeStyle;rounded=0;orthogonalLoop=1;jettySize=auto;html=1;" edge="1" parent="WIyWlLk6GJQsqaUBKTNV-1" source="1kDxsHnjOwTE97DRzntE-6" target="1kDxsHnjOwTE97DRzntE-1">
          <mxGeometry relative="1" as="geometry" />
        </mxCell>
        <mxCell id="1kDxsHnjOwTE97DRzntE-6" value="In ra x" style="strokeWidth=2;html=1;shape=mxgraph.flowchart.display;whiteSpace=wrap;" vertex="1" parent="WIyWlLk6GJQsqaUBKTNV-1">
          <mxGeometry x="364" y="380" width="100" height="60" as="geometry" />
        </mxCell>
      </root>
    </mxGraphModel>
  </diagram>
</mxfile>
